<svg xmlns="http://www.w3.org/2000/svg" xmlns:xlink="http://www.w3.org/1999/xlink" contentStyleType="text/css" data-diagram-type="DESCRIPTION" height="1187px" preserveAspectRatio="none" style="width:382px;height:1187px;background:#FFFFFF;" version="1.1" viewBox="0 0 382 1187" width="382px" zoomAndPan="magnify"><defs/><g><!--cluster Gerenciamento de Tarefas--><g class="cluster" data-entity="Gerenciamento de Tarefas" data-source-line="7" data-uid="ent0003" id="cluster_Gerenciamento de Tarefas"><rect fill="none" height="421" rx="2.5" ry="2.5" style="stroke:#181818;stroke-width:1;" width="223.97" x="128.12" y="7"/><text fill="#000000" font-family="sans-serif" font-size="14" font-weight="bold" lengthAdjust="spacing" textLength="208.79" x="135.71" y="21.9951">Gerenciamento de Tarefas</text></g><!--cluster Projetos--><g class="cluster" data-entity="Projetos" data-source-line="16" data-uid="ent0010" id="cluster_Projetos"><rect fill="none" height="147" rx="2.5" ry="2.5" style="stroke:#181818;stroke-width:1;" width="163.33" x="157.94" y="452"/><text fill="#000000" font-family="sans-serif" font-size="14" font-weight="bold" lengthAdjust="spacing" textLength="65.7207" x="206.7446" y="466.9951">Projetos</text></g><!--cluster Categorias--><g class="cluster" data-entity="Categorias" data-source-line="22" data-uid="ent0013" id="cluster_Categorias"><rect fill="none" height="152" rx="2.5" ry="2.5" style="stroke:#181818;stroke-width:1;" width="178.15" x="150.53" y="623"/><text fill="#000000" font-family="sans-serif" font-size="14" font-weight="bold" lengthAdjust="spacing" textLength="85.0322" x="197.0889" y="637.9951">Categorias</text></g><!--cluster Etiquetas--><g class="cluster" data-entity="Etiquetas" data-source-line="27" data-uid="ent0016" id="cluster_Etiquetas"><rect fill="none" height="150" rx="2.5" ry="2.5" style="stroke:#181818;stroke-width:1;" width="170.57" x="154.32" y="799"/><text fill="#000000" font-family="sans-serif" font-size="14" font-weight="bold" lengthAdjust="spacing" textLength="75.0107" x="202.0996" y="813.9951">Etiquetas</text></g><!--cluster Coment?rios--><g class="cluster" data-entity="Coment&#225;rios" data-source-line="32" data-uid="ent0019" id="cluster_Coment&#225;rios"><rect fill="none" height="103" rx="2.5" ry="2.5" style="stroke:#181818;stroke-width:1;" width="272.8" x="103.2" y="973"/><text fill="#000000" font-family="sans-serif" font-size="14" font-weight="bold" lengthAdjust="spacing" textLength="99.7363" x="189.7318" y="987.9951">Coment&#225;rios</text></g><!--cluster Anexos--><g class="cluster" data-entity="Anexos" data-source-line="36" data-uid="ent0021" id="cluster_Anexos"><rect fill="none" height="81" rx="2.5" ry="2.5" style="stroke:#181818;stroke-width:1;" width="161.34" x="158.93" y="1100"/><text fill="#000000" font-family="sans-serif" font-size="14" font-weight="bold" lengthAdjust="spacing" textLength="57.2783" x="210.9608" y="1114.9951">Anexos</text></g><!--entity UC1--><g class="entity" data-entity="UC1" data-source-line="8" data-uid="ent0004" id="entity_UC1"><ellipse cx="239.6028" cy="396.9966" fill="#F1F1F1" rx="61.2328" ry="14.6466" style="stroke:#181818;stroke-width:0.5;"/><text fill="#000000" font-family="sans-serif" font-size="14" lengthAdjust="spacing" textLength="83.2139" x="197.9959" y="401.645">Criar Tarefa</text></g><!--entity UC2--><g class="entity" data-entity="UC2" data-source-line="9" data-uid="ent0005" id="entity_UC2"><ellipse cx="239.5995" cy="331.9979" fill="#F1F1F1" rx="64.0395" ry="15.2079" style="stroke:#181818;stroke-width:0.5;"/><text fill="#000000" font-family="sans-serif" font-size="14" lengthAdjust="spacing" textLength="90.9043" x="194.1474" y="336.6463">Editar Tarefa</text></g><!--entity UC3--><g class="entity" data-entity="UC3" data-source-line="10" data-uid="ent0006" id="entity_UC3"><ellipse cx="239.602" cy="265.9984" fill="#F1F1F1" rx="65.792" ry="15.5584" style="stroke:#181818;stroke-width:0.5;"/><text fill="#000000" font-family="sans-serif" font-size="14" lengthAdjust="spacing" textLength="95.5596" x="191.8222" y="270.6468">Listar Tarefas</text></g><!--entity UC4--><g class="entity" data-entity="UC4" data-source-line="11" data-uid="ent0007" id="entity_UC4"><ellipse cx="239.6017" cy="197.9963" fill="#F1F1F1" rx="77.4817" ry="17.8963" style="stroke:#181818;stroke-width:0.5;"/><text fill="#000000" font-family="sans-serif" font-size="14" lengthAdjust="spacing" textLength="124.7012" x="177.2511" y="202.6448">Atribuir Categoria</text></g><!--entity UC5--><g class="entity" data-entity="UC5" data-source-line="12" data-uid="ent0008" id="entity_UC5"><ellipse cx="239.5959" cy="129.0012" fill="#F1F1F1" rx="69.8059" ry="16.3612" style="stroke:#181818;stroke-width:0.5;"/><text fill="#000000" font-family="sans-serif" font-size="14" lengthAdjust="spacing" textLength="105.8887" x="186.6516" y="133.6496">Atribuir Projeto</text></g><!--entity UC6--><g class="entity" data-entity="UC6" data-source-line="13" data-uid="ent0009" id="entity_UC6"><ellipse cx="239.6042" cy="60.0048" fill="#F1F1F1" rx="76.5742" ry="17.7148" style="stroke:#181818;stroke-width:0.5;"/><text fill="#000000" font-family="sans-serif" font-size="14" lengthAdjust="spacing" textLength="122.5273" x="178.3405" y="64.6533">Atribuir Etiquetas</text></g><!--entity UC7--><g class="entity" data-entity="UC7" data-source-line="17" data-uid="ent0011" id="entity_UC7"><ellipse cx="239.6028" cy="567.9986" fill="#F1F1F1" rx="62.7928" ry="14.9586" style="stroke:#181818;stroke-width:0.5;"/><text fill="#000000" font-family="sans-serif" font-size="14" lengthAdjust="spacing" textLength="87.5273" x="195.8392" y="572.647">Criar Projeto</text></g><!--entity UC8--><g class="entity" data-entity="UC8" data-source-line="18" data-uid="ent0012" id="entity_UC8"><ellipse cx="239.602" cy="503.0024" fill="#F1F1F1" rx="65.662" ry="15.5324" style="stroke:#181818;stroke-width:0.5;"/><text fill="#000000" font-family="sans-serif" font-size="14" lengthAdjust="spacing" textLength="95.2178" x="191.9932" y="507.6508">Editar Projeto</text></g><!--entity UC9--><g class="entity" data-entity="UC9" data-source-line="23" data-uid="ent0014" id="entity_UC9"><ellipse cx="239.6048" cy="742.997" fill="#F1F1F1" rx="69.9848" ry="16.397" style="stroke:#181818;stroke-width:0.5;"/><text fill="#000000" font-family="sans-serif" font-size="14" lengthAdjust="spacing" textLength="106.3398" x="186.4349" y="747.6454">Criar Categoria</text></g><!--entity UC10--><g class="entity" data-entity="UC10" data-source-line="24" data-uid="ent0015" id="entity_UC10"><ellipse cx="239.596" cy="674.9952" fill="#F1F1F1" rx="73.076" ry="17.0152" style="stroke:#181818;stroke-width:0.5;"/><text fill="#000000" font-family="sans-serif" font-size="14" lengthAdjust="spacing" textLength="114.0303" x="182.5809" y="679.6436">Editar Categoria</text></g><!--entity UC11--><g class="entity" data-entity="UC11" data-source-line="28" data-uid="ent0017" id="entity_UC11"><ellipse cx="239.6028" cy="916.9986" fill="#F1F1F1" rx="66.2928" ry="15.6586" style="stroke:#181818;stroke-width:0.5;"/><text fill="#000000" font-family="sans-serif" font-size="14" lengthAdjust="spacing" textLength="96.8721" x="191.1667" y="921.647">Criar Etiqueta</text></g><!--entity UC12--><g class="entity" data-entity="UC12" data-source-line="29" data-uid="ent0018" id="entity_UC12"><ellipse cx="239.6016" cy="849.9963" fill="#F1F1F1" rx="69.2816" ry="16.2563" style="stroke:#181818;stroke-width:0.5;"/><text fill="#000000" font-family="sans-serif" font-size="14" lengthAdjust="spacing" textLength="104.5625" x="187.3204" y="854.6448">Editar Etiqueta</text></g><!--entity UC13--><g class="entity" data-entity="UC13" data-source-line="33" data-uid="ent0020" id="entity_UC13"><ellipse cx="239.5993" cy="1033.9999" fill="#F1F1F1" rx="120.3993" ry="26.4799" style="stroke:#181818;stroke-width:0.5;"/><text fill="#000000" font-family="sans-serif" font-size="14" lengthAdjust="spacing" textLength="220.2061" x="129.4963" y="1038.6483">Adicionar Coment&#225;rio na tarefa</text></g><!--entity UC14--><g class="entity" data-entity="UC14" data-source-line="37" data-uid="ent0022" id="entity_UC14"><ellipse cx="239.6007" cy="1150.0041" fill="#F1F1F1" rx="64.6707" ry="15.3341" style="stroke:#181818;stroke-width:0.5;"/><text fill="#000000" font-family="sans-serif" font-size="14" lengthAdjust="spacing" textLength="92.5928" x="193.3044" y="1154.6526">Enviar Anexo</text></g><!--entity Usuario--><g class="entity" data-entity="Usuario" data-source-line="4" data-uid="ent0002" id="entity_Usuario"><ellipse cx="32.6021" cy="506.35" fill="#F1F1F1" rx="8" ry="8" style="stroke:#181818;stroke-width:0.5;"/><path d="M32.6021,514.35 L32.6021,541.35 M19.6021,522.35 L45.6021,522.35 M32.6021,541.35 L19.6021,556.35 M32.6021,541.35 L45.6021,556.35" fill="none" style="stroke:#181818;stroke-width:0.5;"/><text fill="#000000" font-family="sans-serif" font-size="14" lengthAdjust="spacing" textLength="53.2041" x="6" y="570.8451">Usuario</text></g><!--link Usuario to UC1--><g class="link" data-entity-1="Usuario" data-entity-2="UC1" data-source-line="41" data-uid="lnk23" id="link_Usuario_UC1"><path d="M59.59,504.41 C69.93,493.02 82.4,480.62 95.2,471 C130.37,444.58 170.8224,425.0871 201.1124,412.1471" fill="none" id="Usuario-to-UC1" style="stroke:#181818;stroke-width:1;"/><polygon fill="#181818" points="206.63,409.79,196.7822,409.6473,202.032,411.7543,199.925,417.0041,206.63,409.79" style="stroke:#181818;stroke-width:1;"/></g><!--link Usuario to UC2--><g class="link" data-entity-1="Usuario" data-entity-2="UC2" data-source-line="42" data-uid="lnk24" id="link_Usuario_UC2"><path d="M36.95,497.49 C42.45,458.39 56.96,398.92 95.2,365 C117.09,345.59 148.08,336.94 175.66,333.31" fill="none" id="Usuario-UC2" style="stroke:#181818;stroke-width:1;"/></g><!--link Usuario to UC3--><g class="link" data-entity-1="Usuario" data-entity-2="UC3" data-source-line="43" data-uid="lnk25" id="link_Usuario_UC3"><path d="M38.68,497.75 C47.39,437.97 67.01,326.41 95.2,299 C115.81,278.97 140.0504,270.946 167.4204,267.376" fill="none" id="Usuario-to-UC3" style="stroke:#181818;stroke-width:1;"/><polygon fill="#181818" points="173.37,266.6,163.9282,263.7977,168.412,267.2467,164.963,271.7305,173.37,266.6" style="stroke:#181818;stroke-width:1;"/></g><!--link Usuario to UC4--><g class="link" data-entity-1="Usuario" data-entity-2="UC4" data-source-line="44" data-uid="lnk26" id="link_Usuario_UC4"><path d="M36.36,497.61 C42.39,424.79 59.15,270.48 95.2,233 C112.79,214.72 132.3237,206.4507 156.9037,201.8207" fill="none" id="Usuario-to-UC4" style="stroke:#181818;stroke-width:1;"/><polygon fill="#181818" points="162.8,200.71,153.2151,198.4451,157.8864,201.6355,154.696,206.3069,162.8,200.71" style="stroke:#181818;stroke-width:1;"/></g><!--link Usuario to UC5--><g class="link" data-entity-1="Usuario" data-entity-2="UC5" data-source-line="45" data-uid="lnk27" id="link_Usuario_UC5"><path d="M34.72,497.47 C37.98,412.16 50.37,211.05 95.2,163 C114.14,142.7 136.8516,134.3579 163.5716,130.4979" fill="none" id="Usuario-to-UC5" style="stroke:#181818;stroke-width:1;"/><polygon fill="#181818" points="169.51,129.64,160.0306,126.9679,164.5614,130.3549,161.1744,134.8857,169.51,129.64" style="stroke:#181818;stroke-width:1;"/></g><!--link Usuario to UC6--><g class="link" data-entity-1="Usuario" data-entity-2="UC6" data-source-line="46" data-uid="lnk28" id="link_Usuario_UC6"><path d="M33.64,497.46 C34.53,401.21 42.06,153.78 95.2,95 C112.48,75.9 132.3846,67.4615 157.3646,62.9715" fill="none" id="Usuario-to-UC6" style="stroke:#181818;stroke-width:1;"/><polygon fill="#181818" points="163.27,61.91,153.7043,59.5653,158.3489,62.7945,155.1196,67.4391,163.27,61.91" style="stroke:#181818;stroke-width:1;"/></g><!--link Usuario to UC7--><g class="link" data-entity-1="Usuario" data-entity-2="UC7" data-source-line="47" data-uid="lnk29" id="link_Usuario_UC7"><path d="M59.57,540.05 C91.24,545 139.6416,552.5556 180.1716,558.8756" fill="none" id="Usuario-to-UC7" style="stroke:#181818;stroke-width:1;"/><polygon fill="#181818" points="186.1,559.8,177.8238,554.4611,181.1597,559.0296,176.5912,562.3656,186.1,559.8" style="stroke:#181818;stroke-width:1;"/></g><!--link Usuario to UC8--><g class="link" data-entity-1="Usuario" data-entity-2="UC8" data-source-line="48" data-uid="lnk30" id="link_Usuario_UC8"><path d="M59.57,531.82 C90.81,526.79 144.1,518.21 184.44,511.72" fill="none" id="Usuario-UC8" style="stroke:#181818;stroke-width:1;"/></g><!--link Usuario to UC9--><g class="link" data-entity-1="Usuario" data-entity-2="UC9" data-source-line="49" data-uid="lnk31" id="link_Usuario_UC9"><path d="M36.65,574.44 C41.91,614.2 56.22,675.23 95.2,710 C115.51,728.11 143.74,736.86 169.78,740.91" fill="none" id="Usuario-UC9" style="stroke:#181818;stroke-width:1;"/></g><!--link Usuario to UC10--><g class="link" data-entity-1="Usuario" data-entity-2="UC10" data-source-line="50" data-uid="lnk32" id="link_Usuario_UC10"><path d="M59.49,566.18 C69.91,577.29 82.46,589.47 95.2,599 C129.17,624.39 172.76,646.19 202.92,659.85" fill="none" id="Usuario-UC10" style="stroke:#181818;stroke-width:1;"/></g><!--link Usuario to UC11--><g class="link" data-entity-1="Usuario" data-entity-2="UC11" data-source-line="51" data-uid="lnk33" id="link_Usuario_UC11"><path d="M35.2,574.41 C39.36,655.41 53.31,839.91 95.2,884 C115.09,904.93 145.36,913.81 172.97,917.2" fill="none" id="Usuario-UC11" style="stroke:#181818;stroke-width:1;"/></g><!--link Usuario to UC12--><g class="link" data-entity-1="Usuario" data-entity-2="UC12" data-source-line="52" data-uid="lnk34" id="link_Usuario_UC12"><path d="M34.18,574.56 C36.86,625.62 48.47,716.08 95.2,775 C120.17,806.48 161.99,826.19 194.04,837.46" fill="none" id="Usuario-UC12" style="stroke:#181818;stroke-width:1;"/></g><!--link Usuario to UC13--><g class="link" data-entity-1="Usuario" data-entity-2="UC13" data-source-line="53" data-uid="lnk35" id="link_Usuario_UC13"><path d="M35.18,574.59 C39.54,665.12 54.25,888.09 95.2,949 C114.26,977.34 146.21,997.61 175.13,1011.24" fill="none" id="Usuario-UC13" style="stroke:#181818;stroke-width:1;"/></g><!--link Usuario to UC14--><g class="link" data-entity-1="Usuario" data-entity-2="UC14" data-source-line="54" data-uid="lnk36" id="link_Usuario_UC14"><path d="M33.4,574.53 C33.54,684.06 39,994.55 95.2,1076 C118.12,1109.2 160.62,1128.47 193.43,1138.97" fill="none" id="Usuario-UC14" style="stroke:#181818;stroke-width:1;"/></g><!--SRC=[TP9DJiCm48NtFiMe6rQLQ9F-RP2gg6BJ1HBq04CoJOUsTh4T148SXXKdu0Iz64xbDhL9l7kQp_FynhEZjGMhG7EviL2mfjooai9iMHvGunuEc6-nf4VxiIEeooZB7Gc1kLKQLgP2pKg86rXYeO3CQqMwKC9VWzuzQP8vuvwayoa8db3J6aqFFWMuKndAqJWmqupQLtk01bRP82GM1TiO6OR8aas36Cya8JEtcfyhrf2XfL8vMy-b7To3LYzabQT67TJ2iijkBwvZyIMQCVWUNR53Yqbhxf2PrktzrEj_Otirz4koBhyu-gpLCQO6jq6cgyIj9kVw-NRxTyRKCF38LBquns-tPFzjvWNdRblhbpOOI0GRR54IT9nBUc_fjP1lzPjFrVF5rC-OIpp-77_92B_lqE_VdVQpqQTT3Cj9fDD8Zo8zZlGaR3yDvIoKxcz27JrkC8nq4kdq3m00]--></g></svg>