<svg xmlns="http://www.w3.org/2000/svg" xmlns:xlink="http://www.w3.org/1999/xlink" contentStyleType="text/css" data-diagram-type="CLASS" height="523px" preserveAspectRatio="none" style="width:516px;height:523px;background:#FFFFFF;" version="1.1" viewBox="0 0 516 523" width="516px" zoomAndPan="magnify"><defs/><g><!--class TaskStatus--><g class="entity" data-entity="TaskStatus" data-source-line="3" data-uid="ent0002" id="entity_TaskStatus"><rect fill="#F1F1F1" height="96.8906" rx="2.5" ry="2.5" style="stroke:#181818;stroke-width:0.5;" width="109.1436" x="7" y="15.15"/><ellipse cx="22" cy="31.15" fill="#EB937F" rx="11" ry="11" style="stroke:#181818;stroke-width:1;"/><path d="M26.1094,37.15 L18.3906,37.15 L18.3906,24.7594 L26.1094,24.7594 L26.1094,26.9156 L20.8438,26.9156 L20.8438,29.5875 L25.6094,29.5875 L25.6094,31.7438 L20.8438,31.7438 L20.8438,34.9938 L26.1094,34.9938 L26.1094,37.15 Z " fill="#000000"/><text fill="#000000" font-family="sans-serif" font-size="14" lengthAdjust="spacing" textLength="77.1436" x="36" y="35.9967">TaskStatus</text><line style="stroke:#181818;stroke-width:0.5;" x1="8" x2="115.1436" y1="47.15" y2="47.15"/><text fill="#000000" font-family="sans-serif" font-size="14" lengthAdjust="spacing" textLength="56.4648" x="13" y="64.1451">Pending</text><text fill="#000000" font-family="sans-serif" font-size="14" lengthAdjust="spacing" textLength="80.6094" x="13" y="80.442">In_Progress</text><text fill="#000000" font-family="sans-serif" font-size="14" lengthAdjust="spacing" textLength="76.3574" x="13" y="96.7389">Completed</text><line style="stroke:#181818;stroke-width:0.5;" x1="8" x2="115.1436" y1="104.0406" y2="104.0406"/></g><!--class Task--><g class="entity" data-entity="Task" data-source-line="9" data-uid="ent0003" id="entity_Task"><rect fill="#F1F1F1" height="162.0781" rx="2.5" ry="2.5" style="stroke:#181818;stroke-width:0.5;" width="168.7002" x="218.22" y="197.19"/><ellipse cx="282.054" cy="213.19" fill="#ADD1B2" rx="11" ry="11" style="stroke:#181818;stroke-width:1;"/><path d="M285.0227,218.8306 Q284.4446,219.1275 283.804,219.2681 Q283.1634,219.4244 282.4602,219.4244 Q279.9602,219.4244 278.6321,217.7838 Q277.3196,216.1275 277.3196,213.0025 Q277.3196,209.8775 278.6321,208.2213 Q279.9602,206.565 282.4602,206.565 Q283.1634,206.565 283.804,206.7213 Q284.4602,206.8775 285.0227,207.1744 L285.0227,209.8931 Q284.3977,209.315 283.804,209.0494 Q283.2102,208.7681 282.5852,208.7681 Q281.2415,208.7681 280.554,209.8463 Q279.8665,210.9088 279.8665,213.0025 Q279.8665,215.0963 280.554,216.1744 Q281.2415,217.2369 282.5852,217.2369 Q283.2102,217.2369 283.804,216.9713 Q284.3977,216.69 285.0227,216.1119 L285.0227,218.8306 Z " fill="#000000"/><text fill="#000000" font-family="sans-serif" font-size="14" lengthAdjust="spacing" textLength="32.5322" x="302.554" y="218.0367">Task</text><line style="stroke:#181818;stroke-width:0.5;" x1="219.22" x2="385.9202" y1="229.19" y2="229.19"/><text fill="#000000" font-family="sans-serif" font-size="14" lengthAdjust="spacing" textLength="60.1289" x="224.22" y="246.1851">-title: str</text><text fill="#000000" font-family="sans-serif" font-size="14" lengthAdjust="spacing" textLength="110.5986" x="224.22" y="262.482">-description: str</text><text fill="#000000" font-family="sans-serif" font-size="14" lengthAdjust="spacing" textLength="134.3809" x="224.22" y="278.7789">-status: TaskStatus</text><text fill="#000000" font-family="sans-serif" font-size="14" lengthAdjust="spacing" textLength="110.7285" x="224.22" y="295.0757">-due_date: date</text><text fill="#000000" font-family="sans-serif" font-size="14" lengthAdjust="spacing" textLength="83.2754" x="224.22" y="311.3726">-priority: str</text><text fill="#000000" font-family="sans-serif" font-size="14" lengthAdjust="spacing" textLength="152.1201" x="224.22" y="327.6695">-created_at: datetime</text><text fill="#000000" font-family="sans-serif" font-size="14" lengthAdjust="spacing" textLength="156.7002" x="224.22" y="343.9664">-updated_at: datetime</text><line style="stroke:#181818;stroke-width:0.5;" x1="219.22" x2="385.9202" y1="351.2681" y2="351.2681"/></g><!--class Category--><g class="entity" data-entity="Category" data-source-line="19" data-uid="ent0004" id="entity_Category"><rect fill="#F1F1F1" height="80.5938" rx="2.5" ry="2.5" style="stroke:#181818;stroke-width:0.5;" width="122.5986" x="151.27" y="23.3"/><ellipse cx="178.2618" cy="39.3" fill="#ADD1B2" rx="11" ry="11" style="stroke:#181818;stroke-width:1;"/><path d="M181.2305,44.9406 Q180.6524,45.2375 180.0118,45.3781 Q179.3712,45.5344 178.668,45.5344 Q176.168,45.5344 174.8399,43.8938 Q173.5274,42.2375 173.5274,39.1125 Q173.5274,35.9875 174.8399,34.3313 Q176.168,32.675 178.668,32.675 Q179.3712,32.675 180.0118,32.8313 Q180.668,32.9875 181.2305,33.2844 L181.2305,36.0031 Q180.6055,35.425 180.0118,35.1594 Q179.418,34.8781 178.793,34.8781 Q177.4493,34.8781 176.7618,35.9563 Q176.0743,37.0188 176.0743,39.1125 Q176.0743,41.2063 176.7618,42.2844 Q177.4493,43.3469 178.793,43.3469 Q179.418,43.3469 180.0118,43.0813 Q180.6055,42.8 181.2305,42.2219 L181.2305,44.9406 Z " fill="#000000"/><text fill="#000000" font-family="sans-serif" font-size="14" lengthAdjust="spacing" textLength="63.9502" x="194.9266" y="44.1467">Category</text><line style="stroke:#181818;stroke-width:0.5;" x1="152.27" x2="272.8686" y1="55.3" y2="55.3"/><text fill="#000000" font-family="sans-serif" font-size="14" lengthAdjust="spacing" textLength="72.4609" x="157.27" y="72.2951">-name: str</text><text fill="#000000" font-family="sans-serif" font-size="14" lengthAdjust="spacing" textLength="110.5986" x="157.27" y="88.592">-description: str</text><line style="stroke:#181818;stroke-width:0.5;" x1="152.27" x2="272.8686" y1="95.8938" y2="95.8938"/></g><!--class Project--><g class="entity" data-entity="Project" data-source-line="24" data-uid="ent0005" id="entity_Project"><rect fill="#F1F1F1" height="113.1875" rx="2.5" ry="2.5" style="stroke:#181818;stroke-width:0.5;" width="168.7002" x="309.22" y="7"/><ellipse cx="365.0935" cy="23" fill="#ADD1B2" rx="11" ry="11" style="stroke:#181818;stroke-width:1;"/><path d="M368.0623,28.6406 Q367.4842,28.9375 366.8435,29.0781 Q366.2029,29.2344 365.4998,29.2344 Q362.9998,29.2344 361.6717,27.5938 Q360.3592,25.9375 360.3592,22.8125 Q360.3592,19.6875 361.6717,18.0313 Q362.9998,16.375 365.4998,16.375 Q366.2029,16.375 366.8435,16.5313 Q367.4998,16.6875 368.0623,16.9844 L368.0623,19.7031 Q367.4373,19.125 366.8435,18.8594 Q366.2498,18.5781 365.6248,18.5781 Q364.281,18.5781 363.5935,19.6563 Q362.906,20.7188 362.906,22.8125 Q362.906,24.9063 363.5935,25.9844 Q364.281,27.0469 365.6248,27.0469 Q366.2498,27.0469 366.8435,26.7813 Q367.4373,26.5 368.0623,25.9219 L368.0623,28.6406 Z " fill="#000000"/><text fill="#000000" font-family="sans-serif" font-size="14" lengthAdjust="spacing" textLength="48.4531" x="385.5935" y="27.8467">Project</text><line style="stroke:#181818;stroke-width:0.5;" x1="310.22" x2="476.9202" y1="39" y2="39"/><text fill="#000000" font-family="sans-serif" font-size="14" lengthAdjust="spacing" textLength="72.4609" x="315.22" y="55.9951">-name: str</text><text fill="#000000" font-family="sans-serif" font-size="14" lengthAdjust="spacing" textLength="110.5986" x="315.22" y="72.292">-description: str</text><text fill="#000000" font-family="sans-serif" font-size="14" lengthAdjust="spacing" textLength="152.1201" x="315.22" y="88.5889">-created_at: datetime</text><text fill="#000000" font-family="sans-serif" font-size="14" lengthAdjust="spacing" textLength="156.7002" x="315.22" y="104.8857">-updated_at: datetime</text><line style="stroke:#181818;stroke-width:0.5;" x1="310.22" x2="476.9202" y1="112.1875" y2="112.1875"/></g><!--class Comment--><g class="entity" data-entity="Comment" data-source-line="31" data-uid="ent0006" id="entity_Comment"><rect fill="#F1F1F1" height="80.5938" rx="2.5" ry="2.5" style="stroke:#181818;stroke-width:0.5;" width="164.1201" x="15.51" y="436.27"/><ellipse cx="59.0977" cy="452.27" fill="#ADD1B2" rx="11" ry="11" style="stroke:#181818;stroke-width:1;"/><path d="M62.0665,457.9106 Q61.4884,458.2075 60.8477,458.3481 Q60.2071,458.5044 59.504,458.5044 Q57.004,458.5044 55.6759,456.8638 Q54.3634,455.2075 54.3634,452.0825 Q54.3634,448.9575 55.6759,447.3013 Q57.004,445.645 59.504,445.645 Q60.2071,445.645 60.8477,445.8013 Q61.504,445.9575 62.0665,446.2544 L62.0665,448.9731 Q61.4415,448.395 60.8477,448.1294 Q60.254,447.8481 59.629,447.8481 Q58.2852,447.8481 57.5977,448.9263 Q56.9102,449.9888 56.9102,452.0825 Q56.9102,454.1763 57.5977,455.2544 Q58.2852,456.3169 59.629,456.3169 Q60.254,456.3169 60.8477,456.0513 Q61.4415,455.77 62.0665,455.1919 L62.0665,457.9106 Z " fill="#000000"/><text fill="#000000" font-family="sans-serif" font-size="14" lengthAdjust="spacing" textLength="68.5918" x="79.4506" y="457.1167">Comment</text><line style="stroke:#181818;stroke-width:0.5;" x1="16.51" x2="178.6301" y1="468.27" y2="468.27"/><text fill="#000000" font-family="sans-serif" font-size="14" lengthAdjust="spacing" textLength="86.3584" x="21.51" y="485.2651">-content: str</text><text fill="#000000" font-family="sans-serif" font-size="14" lengthAdjust="spacing" textLength="152.1201" x="21.51" y="501.562">-created_at: datetime</text><line style="stroke:#181818;stroke-width:0.5;" x1="16.51" x2="178.6301" y1="508.8638" y2="508.8638"/></g><!--class Attachment--><g class="entity" data-entity="Attachment" data-source-line="36" data-uid="ent0007" id="entity_Attachment"><rect fill="#F1F1F1" height="80.5938" rx="2.5" ry="2.5" style="stroke:#181818;stroke-width:0.5;" width="175.666" x="214.74" y="436.27"/><ellipse cx="257.3464" cy="452.27" fill="#ADD1B2" rx="11" ry="11" style="stroke:#181818;stroke-width:1;"/><path d="M260.3152,457.9106 Q259.7371,458.2075 259.0964,458.3481 Q258.4558,458.5044 257.7527,458.5044 Q255.2527,458.5044 253.9246,456.8638 Q252.6121,455.2075 252.6121,452.0825 Q252.6121,448.9575 253.9246,447.3013 Q255.2527,445.645 257.7527,445.645 Q258.4558,445.645 259.0964,445.8013 Q259.7527,445.9575 260.3152,446.2544 L260.3152,448.9731 Q259.6902,448.395 259.0964,448.1294 Q258.5027,447.8481 257.8777,447.8481 Q256.5339,447.8481 255.8464,448.9263 Q255.1589,449.9888 255.1589,452.0825 Q255.1589,454.1763 255.8464,455.2544 Q256.5339,456.3169 257.8777,456.3169 Q258.5027,456.3169 259.0964,456.0513 Q259.6902,455.77 260.3152,455.1919 L260.3152,457.9106 Z " fill="#000000"/><text fill="#000000" font-family="sans-serif" font-size="14" lengthAdjust="spacing" textLength="82.3184" x="277.4812" y="457.1167">Attachment</text><line style="stroke:#181818;stroke-width:0.5;" x1="215.74" x2="389.406" y1="468.27" y2="468.27"/><text fill="#000000" font-family="sans-serif" font-size="14" lengthAdjust="spacing" textLength="59.9854" x="220.74" y="485.2651">-file: File</text><text fill="#000000" font-family="sans-serif" font-size="14" lengthAdjust="spacing" textLength="163.666" x="220.74" y="501.562">-uploaded_at: datetime</text><line style="stroke:#181818;stroke-width:0.5;" x1="215.74" x2="389.406" y1="508.8638" y2="508.8638"/></g><!--class Label--><g class="entity" data-entity="Label" data-source-line="41" data-uid="ent0008" id="entity_Label"><rect fill="#F1F1F1" height="80.5938" rx="2.5" ry="2.5" style="stroke:#181818;stroke-width:0.5;" width="84.4609" x="425.34" y="436.27"/><ellipse cx="446.9516" cy="452.27" fill="#ADD1B2" rx="11" ry="11" style="stroke:#181818;stroke-width:1;"/><path d="M449.9203,457.9106 Q449.3422,458.2075 448.7016,458.3481 Q448.0609,458.5044 447.3578,458.5044 Q444.8578,458.5044 443.5297,456.8638 Q442.2172,455.2075 442.2172,452.0825 Q442.2172,448.9575 443.5297,447.3013 Q444.8578,445.645 447.3578,445.645 Q448.0609,445.645 448.7016,445.8013 Q449.3578,445.9575 449.9203,446.2544 L449.9203,448.9731 Q449.2953,448.395 448.7016,448.1294 Q448.1078,447.8481 447.4828,447.8481 Q446.1391,447.8481 445.4516,448.9263 Q444.7641,449.9888 444.7641,452.0825 Q444.7641,454.1763 445.4516,455.2544 Q446.1391,456.3169 447.4828,456.3169 Q448.1078,456.3169 448.7016,456.0513 Q449.2953,455.77 449.9203,455.1919 L449.9203,457.9106 Z " fill="#000000"/><text fill="#000000" font-family="sans-serif" font-size="14" lengthAdjust="spacing" textLength="37.7686" x="462.4208" y="457.1167">Label</text><line style="stroke:#181818;stroke-width:0.5;" x1="426.34" x2="508.8009" y1="468.27" y2="468.27"/><text fill="#000000" font-family="sans-serif" font-size="14" lengthAdjust="spacing" textLength="72.4609" x="431.34" y="485.2651">-name: str</text><text fill="#000000" font-family="sans-serif" font-size="14" lengthAdjust="spacing" textLength="67.2314" x="431.34" y="501.562">-color: str</text><line style="stroke:#181818;stroke-width:0.5;" x1="426.34" x2="508.8009" y1="508.8638" y2="508.8638"/></g><!--link Category to Task--><g class="link" data-entity-1="Category" data-entity-2="Task" data-source-line="46" data-uid="lnk9" id="link_Category_Task"><path codeLine="46" d="M229.29,104.09 C240.32,130.15 252.8209,159.6947 266.2709,191.4647" fill="none" id="Category-to-Task" style="stroke:#181818;stroke-width:1;"/><polygon fill="#181818" points="268.61,196.99,268.7848,187.1427,266.6607,192.3856,261.4178,190.2616,268.61,196.99" style="stroke:#181818;stroke-width:1;"/><text fill="#000000" font-family="sans-serif" font-size="13" lengthAdjust="spacing" textLength="23.0356" x="256.57" y="163.2569">0..*</text></g><!--link Project to Task--><g class="link" data-entity-1="Project" data-entity-2="Task" data-source-line="47" data-uid="lnk10" id="link_Project_Task"><path codeLine="47" d="M369.66,120.46 C359.66,143.84 350.2017,165.9443 339.2917,191.4243" fill="none" id="Project-to-Task" style="stroke:#181818;stroke-width:1;"/><polygon fill="#181818" points="336.93,196.94,344.1496,190.241,338.8981,192.3436,336.7954,187.0921,336.93,196.94" style="stroke:#181818;stroke-width:1;"/><text fill="#000000" font-family="sans-serif" font-size="13" lengthAdjust="spacing" textLength="23.0356" x="356.57" y="163.2569">0..*</text></g><!--link Task to Comment--><g class="link" data-entity-1="Task" data-entity-2="Comment" data-source-line="48" data-uid="lnk11" id="link_Task_Comment"><path codeLine="48" d="M218.6,359.65 C191.18,385.91 166.2526,409.7793 143.3826,431.6893" fill="none" id="Task-to-Comment" style="stroke:#181818;stroke-width:1;"/><polygon fill="#181818" points="139.05,435.84,148.3161,432.5023,142.6605,432.3811,142.7817,426.7255,139.05,435.84" style="stroke:#181818;stroke-width:1;"/><text fill="#000000" font-family="sans-serif" font-size="13" lengthAdjust="spacing" textLength="23.0356" x="183.57" y="402.3369">0..*</text></g><!--link Task to Attachment--><g class="link" data-entity-1="Task" data-entity-2="Attachment" data-source-line="49" data-uid="lnk12" id="link_Task_Attachment"><path codeLine="49" d="M302.57,359.65 C302.57,385.91 302.57,407.93 302.57,429.84" fill="none" id="Task-to-Attachment" style="stroke:#181818;stroke-width:1;"/><polygon fill="#181818" points="302.57,435.84,306.57,426.84,302.57,430.84,298.57,426.84,302.57,435.84" style="stroke:#181818;stroke-width:1;"/><text fill="#000000" font-family="sans-serif" font-size="13" lengthAdjust="spacing" textLength="23.0356" x="303.57" y="402.3369">0..*</text></g><!--link Task to Label--><g class="link" data-entity-1="Task" data-entity-2="Label" data-source-line="50" data-uid="lnk13" id="link_Task_Label"><path codeLine="50" d="M370.16,359.65 C392.23,385.91 411.9202,409.3363 430.3302,431.2463" fill="none" id="Task-to-Label" style="stroke:#181818;stroke-width:1;"/><polygon fill="#181818" points="434.19,435.84,431.4627,426.3763,430.9735,432.012,425.3378,431.5228,434.19,435.84" style="stroke:#181818;stroke-width:1;"/><text fill="#000000" font-family="sans-serif" font-size="13" lengthAdjust="spacing" textLength="23.0356" x="405.57" y="402.3369">0..*</text></g><!--SRC=[fL5DQyCm3BtxL_WyIEavXy4e30ex5BfxK6qjq-gFO2k7hlI_px6RD6IVi8kGdlIa9oaUoNKGm4fb8CO7va27dd6hlDlJEygr4EXwAvyX7lSCt4Tv5bBkq6boRVAshja5tmQCCKKRRpk3Z5fSXCWjCpDpAid41ciPEUHGOrI1EYRlRc3CG-hPm5BROwE14tkm6Ue2-K1ykd5Lm9JK3N0fOxAbjE_qvyIaS9EGreVJLQK3-vF8YPRMVaF5VsFzHvwt5jqu9ps6K_HBrucSFWhgTSP_eU45ZybUHniF-blw4npGVBcXyiQ7wIBJ2QlgldoybklLwawCHrhYsH_0SRibFXE-J1LH1Vq0]--></g></svg>